# xmcd CD database file
#
# Track frame offsets:
#	225
#	10875
#	22050
#	35625
#	50512
#	60412
#	69974
#	84205
#	94555
#	106367
#	119454
#	137499
#
# Disc length: 1938 seconds
#
# Revision: 0
# Processed by: cddbd v1.5.2PL0 Copyright (c) Steve Scherf et al.
# Submitted via: CDex 1.51
#
DISCID=94078f0c
DTITLE=Guggemusik Schnoogesurrer - So sieht's aus, do simmer stark
DYEAR=2009
DGENRE=Country
TTITLE0=Seven Nation Army
TTITLE1=Let Me Entertain You
TTITLE2=Fairytale Gone Bad
TTITLE3=Because of You
TTITLE4=Kei Aldi Kei Geschrei
TTITLE5=Basket Case
TTITLE6=Living on a Prayer
TTITLE7=Missing You
TTITLE8=What a Feeling
TTITLE9=Kleine Kneipe
TTITLE10=Word Up feat. Pammy
TTITLE11=Tonight You Belong To Me
EXTD=YEAR: 2009
EXTT0=
EXTT1=
EXTT2=
EXTT3=
EXTT4=
EXTT5=
EXTT6=
EXTT7=
EXTT8=
EXTT9=
EXTT10=
EXTT11=
PLAYORDER=
